<svg width="52" height="47" viewBox="0 0 52 47" fill="none" xmlns="http://www.w3.org/2000/svg">
<path d="M50.5 15.9123V36.5C50.5 41.1944 46.6944 45 42 45H10C5.30558 45 1.5 41.1944 1.5 36.5V15.3949C1.5 11.234 4.78818 7.81695 8.94597 7.65703L9.25465 7.64516C12.1002 7.53572 14.7657 6.2242 16.5888 4.03657C17.9281 2.4293 19.9122 1.5 22.0044 1.5H29.2577C30.7075 1.5 32.0415 2.29192 32.7358 3.56471C33.8837 5.66921 36.0336 7.03509 38.4264 7.18011L42.5142 7.42786C47.0007 7.69976 50.5 11.4176 50.5 15.9123Z" stroke="black" stroke-width="3"/>
<circle cx="25.5" cy="26.5" r="10.5" stroke="black" stroke-width="2"/>
</svg>
