<svg width="55" height="52" viewBox="0 0 55 52" fill="none" xmlns="http://www.w3.org/2000/svg">
<path fill-rule="evenodd" clip-rule="evenodd" d="M7.84801 6.02738C6.15372 7.66325 5.18681 9.4322 4.97428 9.87419C4.48016 10.9017 3 14.5225 3 18.0517C3 21.4621 4.92435 25.5598 6.93374 28.1715C7.92561 29.4607 10.3706 32.0088 12.7139 34.3757C14.2055 35.8823 15.6609 37.3202 16.5596 38.2081C17.0296 38.6724 17.3473 38.9863 17.4383 39.0809C17.4322 39.0746 17.4329 39.0753 17.4438 39.0853C17.4597 39.0999 17.4971 39.1344 17.5661 39.1956C17.6651 39.2836 17.8 39.4013 17.9682 39.5464C18.3037 39.8359 18.7576 40.2224 19.2911 40.674C20.3574 41.5764 21.7312 42.7295 23.0902 43.8669C24.4489 45.004 25.7912 46.124 26.794 46.9599C27.0541 47.1767 27.2913 47.3743 27.5 47.5482C27.6936 47.7095 27.8627 47.8502 28.0027 47.9668L28.4588 48.3464C28.4589 48.3465 28.4593 48.3468 27.5 49.5C26.5407 50.6532 26.5407 50.6531 26.5406 50.6531L26.0832 50.2724C25.7918 50.0298 25.375 49.6826 24.8731 49.2643C23.8695 48.4277 22.5256 47.3063 21.1649 46.1676C19.8046 45.0291 18.4258 43.8718 17.353 42.9639C16.817 42.5103 16.3547 42.1166 16.0084 41.8178C15.6972 41.5493 15.4037 41.2932 15.276 41.1605C15.1867 41.0677 14.8951 40.7798 14.4573 40.3476C13.5922 39.4938 12.1564 38.0766 10.582 36.4864C8.28244 34.1636 5.68664 31.4704 4.55605 30.0009C2.32055 27.0953 0 22.3654 0 18.0517C0 13.8568 1.70352 9.75343 2.27062 8.57409C2.5887 7.91263 3.74424 5.81951 5.76423 3.86917C7.79332 1.91005 10.8 0 14.7653 0C18.7452 0 22.2703 2.20551 24.6786 4.20889C25.9069 5.23061 26.9032 6.24871 27.5927 7.01104C27.9383 7.39318 28.2092 7.7136 28.396 7.94151C28.4894 8.05553 28.5619 8.1466 28.6124 8.21088C28.6377 8.24302 28.6574 8.26849 28.6715 8.2868L28.6884 8.30885L28.6937 8.31574L28.6962 8.31906C28.6965 8.31945 28.6967 8.31982 27.5 9.22414C26.3033 10.1285 26.3035 10.1288 26.3037 10.129L26.3031 10.1282L26.2946 10.1172C26.2862 10.1062 26.2723 10.0883 26.2531 10.0639C26.2147 10.015 26.1551 9.94016 26.0755 9.84297C25.9608 9.70298 25.8048 9.51714 25.6111 9.29647C25.5357 9.21053 25.4545 9.1193 25.3678 9.02344C24.7473 8.3375 23.8533 7.42456 22.7601 6.51525C20.5257 4.65655 17.6834 3 14.7653 3C11.8327 3 9.53321 4.40029 7.84801 6.02738Z" fill="#C20075"/>
<path fill-rule="evenodd" clip-rule="evenodd" d="M47.152 6.02738C48.8463 7.66325 49.8132 9.4322 50.0257 9.87419C50.5198 10.9017 52 14.5225 52 18.0517C52 21.4621 50.0757 25.5598 48.0663 28.1715C47.0744 29.4607 44.6294 32.0088 42.2861 34.3757C40.7945 35.8823 39.3391 37.3202 38.4404 38.2081C37.9704 38.6724 37.6527 38.9863 37.5617 39.0809C37.5678 39.0746 37.5671 39.0753 37.5562 39.0853C37.5403 39.0999 37.5029 39.1344 37.4339 39.1956C37.3349 39.2836 37.2 39.4013 37.0318 39.5464C36.6963 39.8359 36.2424 40.2224 35.7089 40.674C34.6426 41.5764 33.2688 42.7295 31.9098 43.8669C30.5511 45.004 29.2088 46.124 28.206 46.9599C27.9459 47.1767 27.7087 47.3743 27.5 47.5482C27.3064 47.7095 27.1373 47.8502 26.9973 47.9668L26.5412 48.3464C26.5411 48.3465 26.5407 48.3468 27.5 49.5C28.4593 50.6532 28.4593 50.6531 28.4594 50.6531L28.9168 50.2724C29.2082 50.0298 29.625 49.6826 30.1269 49.2643C31.1305 48.4277 32.4744 47.3063 33.8351 46.1676C35.1954 45.0291 36.5742 43.8718 37.647 42.9639C38.183 42.5103 38.6453 42.1166 38.9916 41.8178C39.3028 41.5493 39.5963 41.2932 39.724 41.1605C39.8133 41.0677 40.1049 40.7798 40.5427 40.3476C41.4078 39.4938 42.8436 38.0766 44.418 36.4864C46.7176 34.1636 49.3134 31.4704 50.4439 30.0009C52.6794 27.0953 55 22.3654 55 18.0517C55 13.8568 53.2965 9.75343 52.7294 8.57409C52.4113 7.91263 51.2558 5.81951 49.2358 3.86917C47.2067 1.91005 44.2 0 40.2347 0C36.2548 0 32.7297 2.20551 30.3214 4.20889C29.0931 5.23061 28.0968 6.24871 27.4073 7.01104C27.0617 7.39318 26.7908 7.7136 26.604 7.94151C26.5106 8.05553 26.4381 8.1466 26.3876 8.21088C26.3623 8.24302 26.3426 8.26849 26.3285 8.2868L26.3116 8.30885L26.3063 8.31574L26.3038 8.31906C26.3035 8.31945 26.3033 8.31982 27.5 9.22414C28.6967 10.1285 28.6965 10.1288 28.6963 10.129L28.6969 10.1282L28.7054 10.1172C28.7138 10.1062 28.7277 10.0883 28.7469 10.0639C28.7853 10.015 28.8449 9.94016 28.9245 9.84297C29.0392 9.70298 29.1952 9.51714 29.3889 9.29647C29.4643 9.21053 29.5455 9.1193 29.6322 9.02344C30.2527 8.3375 31.1467 7.42456 32.2399 6.51525C34.4743 4.65655 37.3166 3 40.2347 3C43.1673 3 45.4668 4.40029 47.152 6.02738Z" fill="#C20075"/>
<path d="M27.5 51.5L24 48.5H31L27.5 51.5Z" fill="#C20075"/>
<path d="M27.5 11.5C27.5 11.5 26.0313 10.0313 25.6111 9.29647C25.5409 9.17377 25.5 9.07153 25.5 9C25.5 8.5 23 6.5 23 6.5H32C32 6.5 29.5 8.5 29.5 9C29.5 9.07153 29.4591 9.17377 29.3889 9.29647C28.9687 10.0313 27.5 11.5 27.5 11.5Z" fill="#C20075"/>
<path d="M7.84801 6.02738C6.15372 7.66325 5.18681 9.4322 4.97428 9.87419C4.48016 10.9017 3 14.5225 3 18.0517C3 21.4621 4.92435 25.5598 6.93374 28.1715C7.92561 29.4607 10.3706 32.0088 12.7139 34.3757C14.2055 35.8823 15.6609 37.3202 16.5596 38.2081C17.0296 38.6724 17.3473 38.9863 17.4383 39.0809C17.4322 39.0746 17.4329 39.0753 17.4438 39.0853C17.4597 39.0999 17.4971 39.1344 17.5661 39.1956C17.6651 39.2836 17.8 39.4013 17.9682 39.5464C18.3037 39.8359 18.7576 40.2224 19.2911 40.674C20.3574 41.5764 21.7312 42.7295 23.0902 43.8669C24.4489 45.004 25.7912 46.124 26.794 46.9599C27.0541 47.1767 27.2913 47.3743 27.5 47.5482C27.7087 47.3743 27.9459 47.1767 28.206 46.9599C29.2088 46.124 30.5511 45.004 31.9098 43.8669C33.2688 42.7295 34.6426 41.5764 35.7089 40.674C36.2424 40.2224 36.6963 39.8359 37.0318 39.5464C37.2 39.4013 37.3349 39.2836 37.4339 39.1956C37.5029 39.1344 37.5403 39.0999 37.5562 39.0853C37.5671 39.0753 37.5678 39.0746 37.5617 39.0809C37.6527 38.9863 37.9704 38.6724 38.4404 38.2081C39.3391 37.3202 40.7945 35.8823 42.2861 34.3757C44.6294 32.0088 47.0744 29.4607 48.0663 28.1715C50.0757 25.5598 52 21.4621 52 18.0517C52 14.5225 50.5198 10.9017 50.0257 9.87419C49.8132 9.4322 48.8463 7.66325 47.152 6.02738C45.4668 4.40029 43.1673 3 40.2347 3C37.3166 3 34.4743 4.65655 32.2399 6.51525C31.1467 7.42456 30.2527 8.3375 29.6322 9.02344C29.5455 9.1193 29.4643 9.21053 29.3889 9.29647C28.9687 10.0313 27.5 11.5 27.5 11.5C27.5 11.5 26.0313 10.0313 25.6111 9.29647C25.5357 9.21053 25.4545 9.1193 25.3678 9.02344C24.7473 8.3375 23.8533 7.42456 22.7601 6.51525C20.5257 4.65655 17.6834 3 14.7653 3C11.8327 3 9.53321 4.40029 7.84801 6.02738Z" fill="#C20075"/>
</svg>
