<svg width="56" height="52" viewBox="0 0 56 52" fill="none" xmlns="http://www.w3.org/2000/svg">
<path d="M28 9.72414C28 9.72414 22.1633 2 15.2653 2C8.36735 2 4.65306 8.62069 4.12245 9.72414C3.59184 10.8276 2 14.6897 2 18.5517C2 22.4138 4.12245 26.8276 6.2449 29.5862C8.36735 32.3448 16.3265 40.069 16.8571 40.6207C17.3878 41.1724 28 50 28 50" stroke="black" stroke-width="3"/>
<path d="M28 9.72414C28 9.72414 33.8367 2 40.7347 2C47.6327 2 51.3469 8.62069 51.8776 9.72414C52.4082 10.8276 54 14.6897 54 18.5517C54 22.4138 51.8776 26.8276 49.7551 29.5862C47.6327 32.3448 39.6735 40.069 39.1429 40.6207C38.6122 41.1724 28 50 28 50" stroke="black" stroke-width="3"/>
<path d="M28 52L24.5 49L31.5 49L28 52Z" fill="black"/>
<path d="M28 12C28 12 26 10 26 9.5C26 9 23.5 7 23.5 7L32.5 7C32.5 7 30 9 30 9.5C30 10 28 12 28 12Z" fill="black"/>
</svg>
