<svg width="45" height="45" viewBox="0 0 45 45" fill="none" xmlns="http://www.w3.org/2000/svg">
<path d="M40.8792 41.7236L40.2322 41.4883C36.5242 40.14 32.4495 40.2046 28.7862 41.67C27.3954 42.2263 25.9193 42.539 24.4224 42.5944L22.8453 42.6528C11.1877 43.0846 1.5 33.7388 1.5 22.071C1.5 10.7289 10.844 1.5 22.2108 1.5C33.7275 1.5 43.0644 11.0777 42.6142 22.5573L42.5953 23.0408C42.538 24.5022 42.288 25.9496 41.8517 27.3455C40.5976 31.3588 40.6662 35.6689 42.0476 39.6401L42.2888 40.3337C42.5921 41.2058 41.747 42.0392 40.8792 41.7236Z" stroke="black" stroke-width="3"/>
</svg>
